<?xml version="1.0" standalone="no"?><!DOCTYPE svg PUBLIC "-//W3C//DTD SVG 1.1//EN" "http://www.w3.org/Graphics/SVG/1.1/DTD/svg11.dtd"><svg class="icon" width="200px" height="200.00px" viewBox="0 0 1024 1024" version="1.1" xmlns="http://www.w3.org/2000/svg"><path d="M512 512m-512 0a512 512 0 1 0 1024 0 512 512 0 1 0-1024 0Z" fill="#324A5E" /><path d="M756.215873 192H339.911111v640h416.304762z" fill="#84DBFF" /><path d="M267.784127 192h71.92381v640h-71.92381z" fill="#54C0EB" /><path d="M662.552381 472.584127l-78.425397-71.92381-78.222222 71.92381V192h156.647619z" fill="#F1543F" /><path d="M391.314286 608.711111h313.295238v158.679365H391.314286z" fill="#FFFFFF" /><path d="M424.431746 626.996825h19.301587v121.904762h-19.301587zM481.320635 626.996825h19.301587v121.904762h-19.301587zM538.412698 626.996825h19.301588v121.904762H538.412698zM595.301587 626.996825h19.301588v121.904762H595.301587zM652.393651 626.996825h19.301587v121.904762h-19.301587z" fill="#FF7058" /></svg>