<?xml version="1.0" standalone="no"?><!DOCTYPE svg PUBLIC "-//W3C//DTD SVG 1.1//EN" "http://www.w3.org/Graphics/SVG/1.1/DTD/svg11.dtd"><svg class="icon" width="200px" height="200.00px" viewBox="0 0 1024 1024" version="1.1" xmlns="http://www.w3.org/2000/svg"><path d="M512 512m-512 0a512 512 0 1 0 1024 0 512 512 0 1 0-1024 0Z" fill="#FD8469" /><path d="M512 249.701587m-57.701587 0a57.701587 57.701587 0 1 0 115.403174 0 57.701587 57.701587 0 1 0-115.403174 0Z" fill="#2B3B4E" /><path d="M424.228571 736.914286c0 52.622222 39.212698 95.085714 87.771429 95.085714s87.771429-42.666667 87.771429-95.085714h-175.542858z" fill="#2C9984" /><path d="M719.847619 633.295238V465.269841c0-114.793651-93.053968-207.847619-207.847619-207.847619S304.152381 350.47619 304.152381 465.269841v168.025397c0 32.101587-26.006349 58.107937-58.107937 58.107937v73.752381h531.707937v-73.752381c-31.898413 0-57.904762-26.006349-57.904762-58.107937z" fill="#E6E9EE" /></svg>