<?xml version="1.0" standalone="no"?><!DOCTYPE svg PUBLIC "-//W3C//DTD SVG 1.1//EN" "http://www.w3.org/Graphics/SVG/1.1/DTD/svg11.dtd"><svg class="icon" width="200px" height="200.00px" viewBox="0 0 1024 1024" version="1.1" xmlns="http://www.w3.org/2000/svg"><path d="M512 512m-512 0a512 512 0 1 0 1024 0 512 512 0 1 0-1024 0Z" fill="#FFD05B" /><path d="M245.028571 192H300.698413v640h-55.669842zM404.520635 192h55.669841v640h-55.669841zM563.809524 192h55.669841v640h-55.669841zM723.098413 192h55.669841v640h-55.669841z" fill="#FFFFFF" /><path d="M192 253.765079h161.930159v80.457143H192z" fill="#ACB3BA" /><path d="M351.288889 471.771429h161.930159v80.457142h-161.930159z" fill="#F1543F" /><path d="M510.577778 688.355556H672.507937v80.457142h-161.930159z" fill="#2C9984" /><path d="M670.069841 334.222222h161.930159v80.457143h-161.930159z" fill="#54C0EB" /></svg>