<?xml version="1.0" standalone="no"?><!DOCTYPE svg PUBLIC "-//W3C//DTD SVG 1.1//EN" "http://www.w3.org/Graphics/SVG/1.1/DTD/svg11.dtd"><svg class="icon" width="200px" height="200.00px" viewBox="0 0 1024 1024" version="1.1" xmlns="http://www.w3.org/2000/svg"><path d="M512 512m-512 0a512 512 0 1 0 1024 0 512 512 0 1 0-1024 0Z" fill="#FD8469" /><path d="M192 192h640v512.609524h-640z" fill="#324A5E" /><path d="M239.949206 239.949206h544.101588v416.711111H239.949206z" fill="#E6E9EE" /><path d="M666.006349 790.552381H357.993651l54.247619-85.942857h199.51746z" fill="#2B3B4E" /><path d="M325.079365 790.552381h374.044445v41.447619H325.079365z" fill="#324A5E" /><path d="M512 448.406349m-121.295238 0a121.295238 121.295238 0 1 0 242.590476 0 121.295238 121.295238 0 1 0-242.590476 0Z" fill="#F1543F" /><path d="M594.285714 448.406349l-116.622222-79.03492v157.866666z" fill="#FFFFFF" /></svg>